<svg viewBoxSize="575" data-root-id="2518153858219" xmlns="http://www.w3.org/2000/svg" xmlns:xlink="http://www.w3.org/1999/xlink" version="1.1" id="Capa_2_1_" x="100.731" y="124.664" viewBox="138.5999755859375 175.8000030517578 851.7000732421875 648.2463989257812" xml:space="preserve" height="325.67223130204684" width="427.8851784481288" preserveAspectRatio="xMinYMin" zoom="1" editorType="buyer" data-layer-role="icon" style="position: absolute; height: 325.672px; width: 427.885px; top: 124.664px; left: 100.731px;"><path d="M298,572.9c0-0.1-0.1-0.1-0.1-0.2c43.6-48.8,95.1-97.7,138.9-115.3c0,0-85.2,27.6-153,63.1c-0.7-6.4-1.1-13-1.1-19.6   c0-99,81-181,179.2-181c46.7,0,89.4,18.2,121.5,47.9c40.9-22.1,85.8-44.3,135.1-66.1C659.3,225,566.7,175.8,461.8,175.8   c-180.1,0-323.2,145-323.2,325c0,72.7,23.3,139.4,63,193.1c0,0,40.7-58.5,93.6-118.2C296.1,574.8,297,573.9,298,572.9z" name="Layer %{number}" zoom="1" data-layer-id="4965117258256"></path><path d="M785.7,488.9c-1.4-43.3-11.4-84.9-28.5-122.8c0,0,0,0-0.1,0c-1.7-3.7-3.4-7.3-5.2-10.9c125.7-84.4,234.6-142.8,238.4-144.8   C614.1,359.5,425.2,517,332.4,624.3c-0.1-0.1-0.2-0.2-0.4-0.4c-2.2,2.8-4.3,5.5-6.4,8.3c-31,41.7-46.6,85.8-39.3,131.7   c1,0.3,2,0.6,2.9,0.8c-1-0.3-2-0.6-2.9-0.8c0.6,3.5,1.2,7,2,10.4c12.4,7.8,25.5,14.8,39.1,20.9c0,0.1,0.1,0.2,0.1,0.3   c37.9,17.1,79.9,27.1,124.2,28.4c0.5,0,1.1,0,1.6,0c73.9,2.2,143.4-20.5,199.7-61.3c1-0.8,2.1-1.5,3.1-2.3c1-0.7,2-1.5,2.9-2.2   c1.1-0.8,2.2-1.7,3.3-2.5c1-0.8,2-1.6,3.1-2.4c1.2-0.9,2.4-1.9,3.6-2.9c2-1.6,3.9-3.3,5.8-4.9c0,0,0,0,0,0c0.8-0.7,1.6-1.4,2.3-2.1   c1.1-0.9,2.2-1.9,3.2-2.9c0,0,0,0,0,0c1.6-1.5,3.2-3,4.8-4.5c0,0,0,0,0,0c0.1-0.1,0.2-0.2,0.3-0.3c0,0,0,0,0,0c0,0,0,0,0,0   c1.7-1.6,3.5-3.3,5.2-5c58.9-58.4,95.3-139.4,95.3-229.8c0-3.1,0-6.1-0.1-9.1C785.8,490.8,785.7,489.9,785.7,488.9z M631.5,441.2   c-2.1-6.1-4.6-12.1-7.4-17.9c0,0,0,0,0.1,0c0,0,0,0,0,0c0,0,0,0-0.1,0C626.9,429.1,629.4,435.1,631.5,441.2   C631.6,441.2,631.6,441.2,631.5,441.2C631.6,441.2,631.6,441.2,631.5,441.2c9.2,26.3,12.5,55,8.5,84.3c-1.7,12.5-4.8,24.6-8.9,36   c-0.2,0.7-0.5,1.3-0.8,2c-0.3,0.9-0.7,1.8-1.1,2.7c-8.6,21.7-21.4,41.3-37.3,57.9c-1,1-2,2.1-3,3.1c-0.9,0.9-1.8,1.8-2.8,2.7   c-0.6,0.6-1.2,1.2-1.9,1.8c-0.7,0.6-1.3,1.2-2,1.8c-1,0.9-2,1.8-3,2.6c-2,1.7-4,3.4-6.1,5c-1.5,1.2-3,2.3-4.5,3.4   c-36.4,26.8-82.8,40.3-130.9,33.8c-1.7-0.2-3.4-0.5-5.1-0.7c-2.8-0.5-5.5-1-8.3-1.6c-0.2,0-0.3-0.1-0.5-0.1   c-0.7-0.2-1.5-0.3-2.2-0.5c-0.7-0.2-1.4-0.3-2.1-0.5c-2.5-0.6-4.9-1.3-7.4-2c-1.2-0.3-2.4-0.7-3.5-1.1c-1.8-0.6-3.5-1.1-5.2-1.7   C450.7,593,538.2,512.7,631.5,441.2z M332.4,624.3c1.3,1.3,2.6,2.7,3.9,4C335,627,333.7,625.7,332.4,624.3z M338.1,629.9   c0.8,0.8,1.6,1.5,2.4,2.2C339.6,631.4,338.8,630.7,338.1,629.9z M342.5,634.1c0.7,0.6,1.4,1.3,2.1,1.9   C343.9,635.3,343.2,634.7,342.5,634.1z M346.9,637.9c0.6,0.5,1.3,1.1,1.9,1.6C348.1,639,347.5,638.4,346.9,637.9z M293.7,766.1   c-0.9-0.3-1.8-0.6-2.6-0.9C291.9,765.5,292.8,765.8,293.7,766.1z M318.1,776c-0.6-0.3-1.2-0.5-1.8-0.8   C316.9,775.5,317.5,775.7,318.1,776z M312.9,773.8c-1-0.4-2.1-0.9-3.1-1.3C310.9,772.9,311.9,773.3,312.9,773.8z M307.9,771.6   c-0.9-0.4-1.8-0.8-2.8-1.2C306.1,770.8,307,771.2,307.9,771.6z M303.2,769.7c-0.9-0.4-1.8-0.7-2.7-1.1   C301.4,768.9,302.3,769.3,303.2,769.7z M298.4,767.8c-0.9-0.3-1.7-0.7-2.6-1C296.7,767.2,297.5,767.5,298.4,767.8z M321,777.2   c0.3,0.1,0.6,0.3,1,0.4c0,0,0,0,0,0C321.7,777.5,321.3,777.3,321,777.2z" name="Layer %{number}" zoom="1" data-layer-id="6529577358269"></path></svg>