<svg xmlns="http://www.w3.org/2000/svg" xmlns:xlink="http://www.w3.org/1999/xlink" width="500" zoomAndPan="magnify" viewBox="0 0 375 374.999991" height="500" preserveAspectRatio="xMidYMid meet" version="1.0"><defs><clipPath id="9b3a192881"><path d="M 97.222656 97.222656 L 277.972656 97.222656 L 277.972656 277.972656 L 97.222656 277.972656 Z M 97.222656 97.222656 " clip-rule="nonzero"/></clipPath><clipPath id="2b0cc4e4af"><path d="M 113.09375 114.039062 L 247.34375 114.039062 L 247.34375 261 L 113.09375 261 Z M 113.09375 114.039062 " clip-rule="nonzero"/></clipPath></defs><g clip-path="url(#9b3a192881)"><path fill="#ffffff" d="M 187.5 97.222656 C 237.355469 97.222656 277.773438 137.640625 277.773438 187.5 C 277.773438 237.355469 237.355469 277.773438 187.5 277.773438 C 137.640625 277.773438 97.222656 237.355469 97.222656 187.5 C 97.222656 137.640625 137.640625 97.222656 187.5 97.222656 Z M 187.5 97.222656 " fill-opacity="1" fill-rule="evenodd"/></g><g clip-path="url(#2b0cc4e4af)"><path fill="#12043d" d="M 231.421875 217.878906 C 221.671875 232.21875 205.226562 241.65625 186.613281 241.65625 C 156.75 241.65625 132.457031 217.359375 132.457031 187.496094 C 132.457031 157.632812 156.75 133.339844 186.613281 133.339844 C 205.265625 133.339844 221.746094 142.816406 231.488281 157.207031 L 247.449219 146.378906 C 234.230469 126.882812 211.894531 114.042969 186.613281 114.042969 C 146.113281 114.042969 113.164062 146.996094 113.164062 187.496094 C 113.164062 227.996094 146.113281 260.949219 186.613281 260.949219 C 211.875 260.949219 234.191406 248.128906 247.414062 228.660156 Z M 231.421875 217.878906 " fill-opacity="1" fill-rule="nonzero"/></g></svg>