<?xml version="1.0" encoding="UTF-8"?>
<!DOCTYPE svg PUBLIC "-//W3C//DTD SVG 1.1//EN" "http://www.w3.org/Graphics/SVG/1.1/DTD/svg11.dtd">
<svg xmlns="http://www.w3.org/2000/svg" version="1.1" width="224px" height="225px" style="shape-rendering:geometricPrecision; text-rendering:geometricPrecision; image-rendering:optimizeQuality; fill-rule:evenodd; clip-rule:evenodd" xmlns:xlink="http://www.w3.org/1999/xlink">
<g><path style="opacity:1" fill="#fefefe" d="M -0.5,-0.5 C 32.8333,-0.5 66.1667,-0.5 99.5,-0.5C 43.6048,9.72856 10.2715,42.7286 -0.5,98.5C -0.5,65.5 -0.5,32.5 -0.5,-0.5 Z"/></g>
<g><path style="opacity:1" fill="#fefefe" d="M 123.5,-0.5 C 156.833,-0.5 190.167,-0.5 223.5,-0.5C 223.5,32.5 223.5,65.5 223.5,98.5C 212.726,42.7265 179.393,9.72651 123.5,-0.5 Z"/></g>
<g><path style="opacity:1" fill="#c6e0df" d="M 99.5,-0.5 C 107.5,-0.5 115.5,-0.5 123.5,-0.5C 179.393,9.72651 212.726,42.7265 223.5,98.5C 223.5,105.5 223.5,112.5 223.5,119.5C 222.038,139.443 215.705,157.776 204.5,174.5C 194.844,161.344 181.844,155.844 165.5,158C 155.169,160.666 144.836,163.166 134.5,165.5C 133.126,158.039 131.126,150.705 128.5,143.5C 128.561,141.347 129.561,140.014 131.5,139.5C 142.451,136.905 153.118,133.405 163.5,129C 169.286,124.594 172.286,118.76 172.5,111.5C 168.883,95.1481 163.383,79.4814 156,64.5C 148.043,54.4399 137.877,47.7732 125.5,44.5C 125.771,42.6203 125.104,41.287 123.5,40.5C 124.669,33.1693 125.502,25.836 126,18.5C 122.508,10.752 116.508,7.41869 108,8.5C 99.776,7.67732 93.1093,10.344 88,16.5C 87.0943,18.7438 86.5943,21.0772 86.5,23.5C 87.7571,28.7856 88.7571,34.1189 89.5,39.5C 86.7353,34.2116 84.7353,28.5449 83.5,22.5C 83.8047,19.7237 84.8047,17.2237 86.5,15C 85.2513,13.1759 84.0847,13.3426 83,15.5C 81.4796,19.3749 81.1462,23.3749 82,27.5C 83.8469,32.5211 85.6803,37.5211 87.5,42.5C 87.5,43.1667 87.5,43.8333 87.5,44.5C 69.4494,50.7199 57.6161,63.0533 52,81.5C 50.4179,93.1568 48.9179,104.823 47.5,116.5C 47.6313,127.932 53.298,134.765 64.5,137C 70.1354,137.904 75.802,138.404 81.5,138.5C 82.9639,144.225 84.6306,149.892 86.5,155.5C 85.9569,155.56 85.6236,155.893 85.5,156.5C 87.6831,163.573 90.0165,170.573 92.5,177.5C 79.1419,178.316 69.6419,184.982 64,197.5C 61.9669,202.295 61.1336,207.295 61.5,212.5C 24.601,192.381 3.93438,161.381 -0.5,119.5C -0.5,112.5 -0.5,105.5 -0.5,98.5C 10.2715,42.7286 43.6048,9.72856 99.5,-0.5 Z"/></g>
<g><path style="opacity:1" fill="#020202" d="M 123.5,40.5 C 113.177,37.8715 102.844,37.8715 92.5,40.5C 91.4163,40.315 90.4163,39.9817 89.5,39.5C 88.7571,34.1189 87.7571,28.7856 86.5,23.5C 86.5943,21.0772 87.0943,18.7438 88,16.5C 93.1093,10.344 99.776,7.67732 108,8.5C 116.508,7.41869 122.508,10.752 126,18.5C 125.502,25.836 124.669,33.1693 123.5,40.5 Z"/></g>
<g><path style="opacity:1" fill="#0d0f0f" d="M 89.5,39.5 C 89.573,41.0269 88.9063,42.0269 87.5,42.5C 85.6803,37.5211 83.8469,32.5211 82,27.5C 81.1462,23.3749 81.4796,19.3749 83,15.5C 84.0847,13.3426 85.2513,13.1759 86.5,15C 84.8047,17.2237 83.8047,19.7237 83.5,22.5C 84.7353,28.5449 86.7353,34.2116 89.5,39.5 Z"/></g>
<g><path style="opacity:1" fill="#7daeb9" d="M 123.5,40.5 C 125.104,41.287 125.771,42.6203 125.5,44.5C 112.853,40.5925 100.186,40.5925 87.5,44.5C 87.5,43.8333 87.5,43.1667 87.5,42.5C 88.9063,42.0269 89.573,41.0269 89.5,39.5C 90.4163,39.9817 91.4163,40.315 92.5,40.5C 102.844,37.8715 113.177,37.8715 123.5,40.5 Z"/></g>
<g><path style="opacity:1" fill="#030303" d="M 125.5,44.5 C 137.877,47.7732 148.043,54.4399 156,64.5C 163.383,79.4814 168.883,95.1481 172.5,111.5C 172.286,118.76 169.286,124.594 163.5,129C 153.118,133.405 142.451,136.905 131.5,139.5C 140.199,129.772 145.865,118.439 148.5,105.5C 159.581,103.651 163.914,97.3174 161.5,86.5C 158.009,80.4167 152.676,77.4167 145.5,77.5C 142.074,66.6235 135.741,57.9569 126.5,51.5C 124.807,58.5822 122.141,65.2488 118.5,71.5C 117.5,72.8333 116.5,72.8333 115.5,71.5C 118.484,67.546 120.317,63.2126 121,58.5C 116.734,67.6991 110.568,75.3658 102.5,81.5C 101.209,81.7373 100.209,81.404 99.5,80.5C 107.859,74.3378 114.026,66.6711 118,57.5C 111.153,66.8543 102.653,74.1876 92.5,79.5C 88.376,80.3992 84.7093,82.0659 81.5,84.5C 77.8641,85.3255 74.1974,85.9922 70.5,86.5C 68.5992,86.5668 66.7659,86.2335 65,85.5C 63.5405,85.8082 62.3739,86.4749 61.5,87.5C 55.8531,91.3722 54.0198,96.7055 56,103.5C 58.5093,108.856 62.676,111.523 68.5,111.5C 72.322,130.822 83.6554,143.322 102.5,149C 107.637,149.537 112.637,149.204 117.5,148C 107.948,154.473 97.6151,156.973 86.5,155.5C 84.6306,149.892 82.9639,144.225 81.5,138.5C 75.802,138.404 70.1354,137.904 64.5,137C 53.298,134.765 47.6313,127.932 47.5,116.5C 48.9179,104.823 50.4179,93.1568 52,81.5C 57.6161,63.0533 69.4494,50.7199 87.5,44.5C 100.186,40.5925 112.853,40.5925 125.5,44.5 Z"/></g>
<g><path style="opacity:1" fill="#fbfbfb" d="M 131.5,139.5 C 129.561,140.014 128.561,141.347 128.5,143.5C 131.126,150.705 133.126,158.039 134.5,165.5C 128.427,174.637 122.594,183.97 117,193.5C 111.514,200.594 105.347,201.26 98.5,195.5C 95.9104,189.731 93.9104,183.731 92.5,177.5C 90.0165,170.573 87.6831,163.573 85.5,156.5C 85.6236,155.893 85.9569,155.56 86.5,155.5C 97.6151,156.973 107.948,154.473 117.5,148C 112.637,149.204 107.637,149.537 102.5,149C 83.6554,143.322 72.322,130.822 68.5,111.5C 62.676,111.523 58.5093,108.856 56,103.5C 54.0198,96.7055 55.8531,91.3722 61.5,87.5C 64.7131,87.81 67.7131,87.4767 70.5,86.5C 74.1974,85.9922 77.8641,85.3255 81.5,84.5C 81.9382,84.4346 82.2716,84.6012 82.5,85C 80.9368,86.736 79.2701,88.236 77.5,89.5C 76.6618,89.8417 76.3284,90.5084 76.5,91.5C 76.9175,92.2216 77.5842,92.7216 78.5,93C 77.9317,106.096 84.2651,112.096 97.5,111C 103.738,108.592 108.072,104.425 110.5,98.5C 111.495,102.488 112.495,106.488 113.5,110.5C 113.563,112.931 112.563,114.765 110.5,116C 111.873,117.479 113.373,117.312 115,115.5C 116.202,113.323 116.702,110.989 116.5,108.5C 116.435,108.062 116.601,107.728 117,107.5C 123.082,112.319 129.582,112.819 136.5,109C 142.167,103.681 144.001,97.1811 142,89.5C 137.334,81.5872 130.501,78.7539 121.5,81C 115.551,84.0477 111.885,88.881 110.5,95.5C 108.822,90.1281 106.155,85.4614 102.5,81.5C 110.568,75.3658 116.734,67.6991 121,58.5C 120.317,63.2126 118.484,67.546 115.5,71.5C 116.5,72.8333 117.5,72.8333 118.5,71.5C 122.141,65.2488 124.807,58.5822 126.5,51.5C 135.741,57.9569 142.074,66.6235 145.5,77.5C 152.676,77.4167 158.009,80.4167 161.5,86.5C 163.914,97.3174 159.581,103.651 148.5,105.5C 145.865,118.439 140.199,129.772 131.5,139.5 Z"/></g>
<g><path style="opacity:1" fill="#e5e6e6" d="M 99.5,80.5 C 96.9407,80.8016 94.6074,80.4682 92.5,79.5C 102.653,74.1876 111.153,66.8543 118,57.5C 114.026,66.6711 107.859,74.3378 99.5,80.5 Z"/></g>
<g><path style="opacity:1" fill="#858585" d="M 70.5,86.5 C 67.7131,87.4767 64.7131,87.81 61.5,87.5C 62.3739,86.4749 63.5405,85.8082 65,85.5C 66.7659,86.2335 68.5992,86.5668 70.5,86.5 Z"/></g>
<g><path style="opacity:1" fill="#0a0a0a" d="M 148.5,86.5 C 149.675,86.281 150.675,86.6143 151.5,87.5C 149.056,90.0535 147.389,93.0535 146.5,96.5C 145.018,92.7267 145.684,89.3934 148.5,86.5 Z"/></g>
<g><path style="opacity:1" fill="#86bac5" d="M 92.5,79.5 C 94.6074,80.4682 96.9407,80.8016 99.5,80.5C 100.209,81.404 101.209,81.7373 102.5,81.5C 106.155,85.4614 108.822,90.1281 110.5,95.5C 111.885,88.881 115.551,84.0477 121.5,81C 130.501,78.7539 137.334,81.5872 142,89.5C 144.001,97.1811 142.167,103.681 136.5,109C 129.582,112.819 123.082,112.319 117,107.5C 116.601,107.728 116.435,108.062 116.5,108.5C 115.067,105.718 113.9,102.718 113,99.5C 112.329,98.7476 111.496,98.4142 110.5,98.5C 108.072,104.425 103.738,108.592 97.5,111C 84.2651,112.096 77.9317,106.096 78.5,93C 77.5842,92.7216 76.9175,92.2216 76.5,91.5C 78.4241,91.2893 78.7574,90.6226 77.5,89.5C 79.2701,88.236 80.9368,86.736 82.5,85C 82.2716,84.6012 81.9382,84.4346 81.5,84.5C 84.7093,82.0659 88.376,80.3992 92.5,79.5 Z"/></g>
<g><path style="opacity:1" fill="#f7f7f8" d="M 98.5,84.5 C 106.413,88.1697 108.579,94.1697 105,102.5C 99.4818,108.921 92.9818,110.087 85.5,106C 82.3401,103.053 80.6735,99.3861 80.5,95C 80.5572,92.7911 81.5572,91.2911 83.5,90.5C 88.8318,89.3342 93.8318,87.3342 98.5,84.5 Z"/></g>
<g><path style="opacity:1" fill="#f9fafa" d="M 124.5,82.5 C 138.129,83.7741 142.629,90.7741 138,103.5C 132.972,108.579 127.139,109.745 120.5,107C 114.079,101.482 112.913,94.9818 117,87.5C 119.426,85.5476 121.926,83.881 124.5,82.5 Z"/></g>
<g><path style="opacity:1" fill="#0c0d0d" d="M 94.5,83.5 C 96.099,83.2322 97.4324,83.5655 98.5,84.5C 93.8318,87.3342 88.8318,89.3342 83.5,90.5C 82.9569,90.44 82.6236,90.1067 82.5,89.5C 83.2427,88.8182 83.9094,88.1515 84.5,87.5C 88.1368,86.7365 91.4701,85.4032 94.5,83.5 Z"/></g>
<g><path style="opacity:1" fill="#e6e9e9" d="M 94.5,83.5 C 91.4701,85.4032 88.1368,86.7365 84.5,87.5C 87.1195,83.8403 90.4528,82.507 94.5,83.5 Z"/></g>
<g><path style="opacity:1" fill="#000000" d="M 77.5,89.5 C 78.7574,90.6226 78.4241,91.2893 76.5,91.5C 76.3284,90.5084 76.6618,89.8417 77.5,89.5 Z"/></g>
<g><path style="opacity:1" fill="#1b1b1b" d="M 60.5,92.5 C 65.735,93.5954 68.0683,96.9287 67.5,102.5C 66.5,102.5 65.5,102.5 64.5,102.5C 64.6621,100.473 64.4955,98.4727 64,96.5C 62.3732,95.4677 61.2066,94.1344 60.5,92.5 Z"/></g>
<g><path style="opacity:1" fill="#040404" d="M 94.5,92.5 C 95.8221,92.33 96.9887,92.6634 98,93.5C 98.6667,95.8333 98.6667,98.1667 98,100.5C 96.4126,101.727 95.0793,101.394 94,99.5C 93.2967,97.0709 93.4634,94.7375 94.5,92.5 Z"/></g>
<g><path style="opacity:1" fill="#101010" d="M 121.5,91.5 C 124.893,91.3753 126.226,93.042 125.5,96.5C 123.867,103.13 122.2,103.13 120.5,96.5C 120.728,94.7927 121.062,93.126 121.5,91.5 Z"/></g>
<g><path style="opacity:1" fill="#101111" d="M 110.5,98.5 C 111.496,98.4142 112.329,98.7476 113,99.5C 113.9,102.718 115.067,105.718 116.5,108.5C 116.702,110.989 116.202,113.323 115,115.5C 113.373,117.312 111.873,117.479 110.5,116C 112.563,114.765 113.563,112.931 113.5,110.5C 112.495,106.488 111.495,102.488 110.5,98.5 Z"/></g>
<g><path style="opacity:1" fill="#0f0f0f" d="M 93.5,122.5 C 97.8034,125.99 102.47,128.99 107.5,131.5C 101.986,132.233 97.4861,130.233 94,125.5C 93.5172,124.552 93.3505,123.552 93.5,122.5 Z"/></g>
<g><path style="opacity:1" fill="#fefefe" d="M -0.5,119.5 C 3.93438,161.381 24.601,192.381 61.5,212.5C 74.2737,218.762 87.6071,222.762 101.5,224.5C 67.5,224.5 33.5,224.5 -0.5,224.5C -0.5,189.5 -0.5,154.5 -0.5,119.5 Z"/></g>
<g><path style="opacity:1" fill="#fdfdfd" d="M 223.5,119.5 C 223.5,154.5 223.5,189.5 223.5,224.5C 189.5,224.5 155.5,224.5 121.5,224.5C 156.514,219.834 184.181,203.168 204.5,174.5C 215.705,157.776 222.038,139.443 223.5,119.5 Z"/></g>
<g><path style="opacity:1" fill="#020202" d="M 204.5,174.5 C 184.181,203.168 156.514,219.834 121.5,224.5C 114.833,224.5 108.167,224.5 101.5,224.5C 87.6071,222.762 74.2737,218.762 61.5,212.5C 61.1336,207.295 61.9669,202.295 64,197.5C 69.6419,184.982 79.1419,178.316 92.5,177.5C 93.9104,183.731 95.9104,189.731 98.5,195.5C 105.347,201.26 111.514,200.594 117,193.5C 122.594,183.97 128.427,174.637 134.5,165.5C 144.836,163.166 155.169,160.666 165.5,158C 181.844,155.844 194.844,161.344 204.5,174.5 Z"/></g>
</svg>
