<svg xmlns="http://www.w3.org/2000/svg" xmlns:xlink="http://www.w3.org/1999/xlink" width="500" zoomAndPan="magnify" viewBox="0 0 375 374.999991" height="500" preserveAspectRatio="xMidYMid meet" version="1.0"><defs><g/><clipPath id="697edb4e22"><path d="M 0 6.050781 L 362.898438 6.050781 L 362.898438 368.949219 L 0 368.949219 Z M 0 6.050781 " clip-rule="nonzero"/></clipPath><clipPath id="69ae4a56c4"><path d="M 181.449219 6.050781 C 81.238281 6.050781 0 87.289062 0 187.5 C 0 287.710938 81.238281 368.949219 181.449219 368.949219 C 281.660156 368.949219 362.898438 287.710938 362.898438 187.5 C 362.898438 87.289062 281.660156 6.050781 181.449219 6.050781 Z M 181.449219 6.050781 " clip-rule="nonzero"/></clipPath></defs><g clip-path="url(#697edb4e22)"><g clip-path="url(#69ae4a56c4)"><path fill="#ffffff" d="M 0 6.050781 L 362.898438 6.050781 L 362.898438 368.949219 L 0 368.949219 Z M 0 6.050781 " fill-opacity="1" fill-rule="nonzero"/></g></g><g fill="#000000" fill-opacity="1"><g transform="translate(19.28132, 260.165588)"><g><path d="M 9.171875 -26.421875 L 9.171875 -120.390625 C 9.171875 -129.078125 11.4375 -135.65625 15.96875 -140.125 C 20.5 -144.59375 27.046875 -146.828125 35.609375 -146.828125 L 56.15625 -146.828125 C 64.84375 -146.828125 71.421875 -144.59375 75.890625 -140.125 C 80.359375 -135.65625 82.59375 -129.078125 82.59375 -120.390625 L 82.59375 -26.421875 C 82.59375 -17.859375 80.359375 -11.3125 75.890625 -6.78125 C 71.421875 -2.257812 64.84375 0 56.15625 0 L 35.609375 0 C 27.046875 0 20.5 -2.257812 15.96875 -6.78125 C 11.4375 -11.3125 9.171875 -17.859375 9.171875 -26.421875 Z M 40.921875 -23.671875 L 51.578125 -23.671875 C 56.460938 -23.671875 58.90625 -26.117188 58.90625 -31.015625 L 58.90625 -115.8125 C 58.90625 -120.707031 56.460938 -123.15625 51.578125 -123.15625 L 40.921875 -123.15625 C 36.035156 -123.15625 33.59375 -120.707031 33.59375 -115.8125 L 33.59375 -31.015625 C 33.59375 -26.117188 36.035156 -23.671875 40.921875 -23.671875 Z M 40.921875 -23.671875 "/></g></g></g><g fill="#000000" fill-opacity="1"><g transform="translate(111.049681, 260.165588)"><g><path d="M 84.609375 -120.390625 L 84.609375 -75.609375 C 84.609375 -63.378906 80.140625 -55.304688 71.203125 -51.390625 L 83.875 -3.296875 C 84.488281 -1.097656 83.628906 0 81.296875 0 L 62.21875 0 C 60.5 0 59.457031 -0.851562 59.09375 -2.5625 L 46.796875 -49.1875 L 34.140625 -49.1875 L 34.140625 -2.9375 C 34.140625 -0.976562 33.160156 0 31.203125 0 L 12.109375 0 C 10.148438 0 9.171875 -0.976562 9.171875 -2.9375 L 9.171875 -143.890625 C 9.171875 -145.847656 10.148438 -146.828125 12.109375 -146.828125 L 58.171875 -146.828125 C 66.859375 -146.828125 73.4375 -144.59375 77.90625 -140.125 C 82.375 -135.65625 84.609375 -129.078125 84.609375 -120.390625 Z M 34.140625 -73.40625 L 52.3125 -73.40625 C 57.195312 -73.40625 59.640625 -75.851562 59.640625 -80.75 L 59.640625 -115.25 C 59.640625 -120.144531 57.195312 -122.59375 52.3125 -122.59375 L 34.140625 -122.59375 Z M 34.140625 -73.40625 "/></g></g></g><g fill="#000000" fill-opacity="1"><g transform="translate(204.836953, 260.165588)"><g><path d="M 12.109375 -146.828125 L 31.203125 -146.828125 C 33.160156 -146.828125 34.140625 -145.847656 34.140625 -143.890625 L 34.140625 -2.9375 C 34.140625 -0.976562 33.160156 0 31.203125 0 L 12.109375 0 C 10.148438 0 9.171875 -0.976562 9.171875 -2.9375 L 9.171875 -143.890625 C 9.171875 -145.847656 10.148438 -146.828125 12.109375 -146.828125 Z M 12.109375 -146.828125 "/></g></g></g><g fill="#000000" fill-opacity="1"><g transform="translate(248.151623, 260.165588)"><g><path d="M 97.640625 0 L 78.1875 0 C 76.59375 0 75.613281 -0.851562 75.25 -2.5625 L 70.109375 -29.359375 L 37.4375 -29.359375 L 32.484375 -2.5625 C 32.117188 -0.851562 31.140625 0 29.546875 0 L 9.90625 0 C 7.707031 0 6.914062 -1.039062 7.53125 -3.125 L 37.984375 -144.25 C 38.359375 -145.96875 39.398438 -146.828125 41.109375 -146.828125 L 66.625 -146.828125 C 68.332031 -146.828125 69.367188 -145.96875 69.734375 -144.25 L 100.203125 -3.125 C 100.578125 -1.039062 99.722656 0 97.640625 0 Z M 65.515625 -50.65625 L 53.78125 -114.703125 L 42.03125 -50.65625 Z M 65.515625 -50.65625 "/></g></g></g></svg>