<?xml version="1.0" encoding="UTF-8"?>
<svg version="1.1" xmlns="http://www.w3.org/2000/svg" width="500" height="500">
<path d="M0 0 C165 0 330 0 500 0 C500 165 500 330 500 500 C335 500 170 500 0 500 C0 335 0 170 0 0 Z " fill="#000000" transform="translate(0,0)"/>
<path d="M0 0 C0.18175781 1.23234375 0.36351562 2.4646875 0.55078125 3.734375 C1.94291113 12.97254517 3.60938924 21.96134248 6 31 C7.64874082 37.7679793 8.26681369 44.03319801 8 51 C12.49733673 49.62581378 14.19217064 47.68527603 17 44 C21.43243243 40 21.43243243 40 25 40 C25.3403125 38.948125 25.3403125 38.948125 25.6875 37.875 C28.46299788 31.79533797 33.14001051 27.90574487 38.1484375 23.67578125 C40.19438142 21.9272083 40.19438142 21.9272083 42.1875 19.125 C44.40369452 16.52670298 45.71589325 16.50524719 49 16 C49.00142502 16.88283157 49.00285004 17.76566315 49.00431824 18.67524719 C49.02213688 26.98919949 49.06371607 35.30261851 49.13209057 43.61631489 C49.16640341 47.8906845 49.19147713 52.1646951 49.19555664 56.43920898 C49.19983054 60.56330898 49.22821616 64.68659851 49.27343178 68.81044579 C49.28643616 70.3848823 49.29070405 71.95941566 49.28615379 73.53389931 C49.28126803 75.73744169 49.30724261 77.93859662 49.34057617 80.1418457 C49.35056892 82.02381401 49.35056892 82.02381401 49.36076355 83.94380188 C49.68507392 87.18559108 49.68507392 87.18559108 52.43965149 88.80363464 C53.2845665 89.19843521 54.12948151 89.59323578 55 90 C58.2041236 93.94353673 59.0163135 98.59580264 60.2421875 103.421875 C61.08433251 106.28690442 62.44997472 108.463595 64 111 C64.165 112.175625 64.33 113.35125 64.5 114.5625 C65.01545711 118.10626763 65.74210818 119.34943135 68 122 C68 122.66 68 123.32 68 124 C68.70511719 124.11214844 69.41023437 124.22429687 70.13671875 124.33984375 C73.27389512 125.06314908 75.90127906 126.19457691 78.8125 127.5625 C79.78832031 128.01753906 80.76414062 128.47257813 81.76953125 128.94140625 C82.87361328 129.46541016 82.87361328 129.46541016 84 130 C84 130.66 84 131.32 84 132 C86.97 132.99 86.97 132.99 90 134 C90 134.66 90 135.32 90 136 C90.70511719 136.11214844 91.41023437 136.22429687 92.13671875 136.33984375 C95.27389512 137.06314908 97.90127906 138.19457691 100.8125 139.5625 C101.78832031 140.01753906 102.76414062 140.47257813 103.76953125 140.94140625 C104.87361328 141.46541016 104.87361328 141.46541016 106 142 C106 142.66 106 143.32 106 144 C109.3 144.99 112.6 145.98 116 147 C116 147.99 116 148.98 116 150 C117.32 150.66 118.64 151.32 120 152 C118.17285537 156.48480955 115.0709892 159.88541789 110.80078125 162.18359375 C106.821242 164.76446649 103.77705989 168.09315556 100.5 171.5 C99.2028547 172.84851739 97.90089169 174.19242003 96.59375 175.53125 C96.02333984 176.12486328 95.45292969 176.71847656 94.86523438 177.33007812 C90.73662607 181.02637142 87.56813159 182.37624067 82.01635742 182.34057617 C80.83551071 182.34034958 79.654664 182.34012299 78.43803406 182.33988953 C76.54091423 182.31666374 76.54091423 182.31666374 74.60546875 182.29296875 C73.30297684 182.28872391 72.00048492 182.28447906 70.65852356 182.28010559 C67.20767733 182.26869012 63.75721417 182.23925217 60.30651855 182.20599365 C56.78057028 182.17522108 53.25455968 182.16158497 49.72851562 182.14648438 C42.81885376 182.11437868 35.90944531 182.06322281 29 182 C29.62648438 182.89203125 30.25296875 183.7840625 30.8984375 184.703125 C31.72409726 185.88531965 32.54961039 187.06761672 33.375 188.25 C33.99375 189.12978516 33.99375 189.12978516 34.625 190.02734375 C36.65501418 192.94139636 38.42822528 195.82234008 40 199 C41.63035637 200.70220259 43.30164248 202.36563856 45 204 C46.72152872 205.82094831 48.42982737 207.65449096 50.125 209.5 C50.97320312 210.4178125 51.82140625 211.335625 52.6953125 212.28125 C54.79469098 214.75780496 56.38232091 217.19829676 58 220 C58.53625 220.474375 59.0725 220.94875 59.625 221.4375 C61.64057463 223.72792572 61.67063865 226.03574786 62 229 C62.66 229 63.32 229 64 229 C64 229.66 64 230.32 64 231 C64.66 231 65.32 231 66 231 C68 234 68 234 67.625 236.6875 C67.41875 237.450625 67.2125 238.21375 67 239 C66.01 239.33 65.02 239.66 64 240 C64 240.66 64 241.32 64 242 C63.34 242 62.68 242 62 242 C61.9175 242.515625 61.835 243.03125 61.75 243.5625 C60.65652317 247.11629969 59.01363024 249.86110581 57 253 C56.01 253.33 55.02 253.66 54 254 C53.63863243 255.32600994 53.31156761 256.66141324 53 258 C51.91782469 259.79006442 50.76573279 261.53895795 49.5625 263.25 C48.94503906 264.14203125 48.32757813 265.0340625 47.69140625 265.953125 C46.85416016 266.96632813 46.85416016 266.96632813 46 268 C45.34 268 44.68 268 44 268 C43.90460938 268.54914063 43.80921875 269.09828125 43.7109375 269.6640625 C39.93753374 282.06238914 27.02059394 294.76872188 18.41796875 304.25 C16.9494943 306.06233211 15.93291651 307.86348186 14.875 309.9375 C13 313 13 313 10.3828125 313.69140625 C9.59648437 313.79324219 8.81015625 313.89507812 8 314 C7.46890625 313.32453125 6.9378125 312.6490625 6.390625 311.953125 C5.33101562 310.61507812 5.33101562 310.61507812 4.25 309.25 C3.55390625 308.36828125 2.8578125 307.4865625 2.140625 306.578125 C0.07410125 303.98387945 0.07410125 303.98387945 -2.265625 301.859375 C-4 300 -4 300 -4 297 C-4.85851562 296.64228516 -4.85851562 296.64228516 -5.734375 296.27734375 C-8.47339337 294.73310409 -10.16670213 292.91199704 -12.25 290.5625 C-12.95640625 289.78003906 -13.6628125 288.99757813 -14.390625 288.19140625 C-16 286 -16 286 -16 283 C-17.32 282.34 -18.64 281.68 -20 281 C-20 280.01 -20 279.02 -20 278 C-20.86625 277.62875 -20.86625 277.62875 -21.75 277.25 C-24.34908658 275.80606301 -26.07836838 274.26478013 -28 272 C-28 271.01 -28 270.02 -28 269 C-29.32 268.34 -30.64 267.68 -32 267 C-32 266.01 -32 265.02 -32 264 C-32.61875 263.71125 -33.2375 263.4225 -33.875 263.125 C-36 262 -36 262 -38 260 C-38 259.01 -38 258.02 -38 257 C-38.66 257 -39.32 257 -40 257 C-40 256.34 -40 255.68 -40 255 C-40.598125 254.896875 -41.19625 254.79375 -41.8125 254.6875 C-46.12651766 253.33166588 -47.96911574 249.86835097 -50 246 C-50 245.01 -50 244.02 -50 243 C-50.66 243 -51.32 243 -52 243 C-52 242.34 -52 241.68 -52 241 C-52.8971875 240.8453125 -52.8971875 240.8453125 -53.8125 240.6875 C-58.12651766 239.33166588 -59.96911574 235.86835097 -62 232 C-62 231.01 -62 230.02 -62 229 C-62.66 229 -63.32 229 -64 229 C-64 228.34 -64 227.68 -64 227 C-64.8971875 226.8453125 -64.8971875 226.8453125 -65.8125 226.6875 C-70.12651766 225.33166588 -71.96911574 221.86835097 -74 218 C-74 217.01 -74 216.02 -74 215 C-75.32 214.34 -76.64 213.68 -78 213 C-78 212.01 -78 211.02 -78 210 C-78.86625 209.62875 -78.86625 209.62875 -79.75 209.25 C-82.34908658 207.80606301 -84.07836838 206.26478013 -86 204 C-86 203.01 -86 202.02 -86 201 C-87.32 200.34 -88.64 199.68 -90 199 C-90 198.01 -90 197.02 -90 196 C-90.61875 195.71125 -91.2375 195.4225 -91.875 195.125 C-94 194 -94 194 -96 192 C-96 191.01 -96 190.02 -96 189 C-97.65 188.67 -99.3 188.34 -101 188 C-101 187.34 -101 186.68 -101 186 C-101.66 186 -102.32 186 -103 186 C-105.25438633 183.16114314 -106.04113633 181.65818122 -105.8125 178 C-105.058711 175.21677907 -104.16310834 172.63637891 -103 170 C-102.01 170 -101.02 170 -100 170 C-99.88205078 168.98292969 -99.88205078 168.98292969 -99.76171875 167.9453125 C-98.78086352 164.15267228 -96.87881698 161.15361773 -94.8125 157.875 C-93.99045134 156.54013012 -93.17014821 155.20418378 -92.3515625 153.8671875 C-91.94969727 153.21202148 -91.54783203 152.55685547 -91.13378906 151.88183594 C-89.06227866 148.44359258 -87.17407793 144.90963041 -85.28125 141.37109375 C-84.12836471 139.23755299 -82.92265416 137.14902828 -81.6875 135.0625 C-79.94936936 132.24057204 -79.94936936 132.24057204 -79.5 129.8125 C-78.75967454 127.12882021 -77.00418461 125.88965977 -75 124 C-71.79790698 120.50680762 -70.3471214 117.4149005 -68.84375 113.02734375 C-67.97526689 110.94057183 -66.95541822 109.45837469 -65.5625 107.6875 C-62.19514322 103.29973207 -60.68681304 98.21121571 -59 93 C-58.34 93 -57.68 93 -57 93 C-57 91.68 -57 90.36 -57 89 C-56.0409375 88.5978125 -56.0409375 88.5978125 -55.0625 88.1875 C-52.66868314 87.11332248 -52.66868314 87.11332248 -52 84 C-51.34 84 -50.68 84 -50 84 C-50 82.68 -50 81.36 -50 80 C-49.34 80 -48.68 80 -48 80 C-47.896875 79.278125 -47.79375 78.55625 -47.6875 77.8125 C-46.93206053 74.72206579 -45.84468685 72.58256159 -44 70 C-43.34 70 -42.68 70 -42 70 C-41.814375 68.824375 -41.814375 68.824375 -41.625 67.625 C-41 65 -41 65 -39 63 C-38.566875 61.7625 -38.13375 60.525 -37.6875 59.25 C-36.2070297 55.0716168 -33.8382816 52.40593792 -31 49 C-30.34239848 47.15871574 -29.68859783 45.31579348 -29.0703125 43.4609375 C-27.32763191 39.45404417 -24.81801668 35.92122736 -22.40820312 32.29296875 C-19.60351949 28.03790222 -17.29723989 23.70964019 -15.11328125 19.1015625 C-14.05160033 17.09740693 -12.93512652 15.56718223 -11.4375 13.875 C-8.96954656 10.96408056 -7.53152566 8.28532527 -5.9921875 4.83203125 C-4.52076108 2.11510608 -3.23840184 0 0 0 Z " fill="#F4F4F4" transform="translate(242,94)"/>
<path d="M0 0 C1.32 0 2.64 0 4 0 C4 0.66 4 1.32 4 2 C4.56203125 2.11859375 5.1240625 2.2371875 5.703125 2.359375 C12.2716384 4.19140935 18.29670482 8.07586464 23.9921875 11.7421875 C26.18495794 13.11586859 28.42150071 14.3760829 30.6875 15.625 C31.43515625 16.04523438 32.1828125 16.46546875 32.953125 16.8984375 C35.1120486 18.10045322 35.1120486 18.10045322 37.9375 19.25 C40.80532677 21.68330756 40.91824856 23.98210009 41.5390625 27.6015625 C41.98211003 29.90691152 42.63153236 31.88703156 43.5 34.0625 C45.56271015 39.30827555 47 44.31248804 47 50 C47.66 50 48.32 50 49 50 C49.67417969 50.73089844 50.34835937 51.46179688 51.04296875 52.21484375 C54.51663665 55.82588116 58.79319105 57.54727508 63.3125 59.5625 C64.95479247 60.31300303 66.59672328 61.06429802 68.23828125 61.81640625 C69.42671631 62.35612061 69.42671631 62.35612061 70.63916016 62.90673828 C74.13417694 64.52521658 77.56554723 66.25708438 81 68 C81 68.66 81 69.32 81 70 C81.9075 70.28875 82.815 70.5775 83.75 70.875 C86.32202908 71.76531776 88.61346766 72.71494413 91 74 C89.64195446 77.1214778 88.18624145 78.96958229 85.5625 81.125 C84.96566406 81.62257813 84.36882812 82.12015625 83.75390625 82.6328125 C79.67143479 85.81513992 77.4928742 86.25624118 72.35717773 86.28710938 C71.68695587 86.29394241 71.01673401 86.30077545 70.32620239 86.30781555 C68.87264289 86.32139381 67.41903575 86.33045337 65.96542168 86.33552551 C63.66672456 86.3438108 61.36842545 86.36431014 59.06983948 86.38806152 C53.36272549 86.44448956 47.65551507 86.47972171 41.94824219 86.51568604 C37.12321067 86.54688952 32.2983729 86.58604419 27.47349739 86.63594055 C25.20556716 86.65605512 22.93778552 86.66433681 20.66978455 86.67224121 C19.28432671 86.68520907 17.89887388 86.69872871 16.51342773 86.71289062 C15.30113998 86.72018188 14.08885223 86.72747314 12.83982849 86.73498535 C9.86676599 86.70767032 9.86676599 86.70767032 8 89 C7.58333364 91.34085475 7.26490358 93.6996547 7 96.0625 C6.02111828 104.3237567 6.02111828 104.3237567 5 108.3125 C3.55742876 114.27588507 3.09874298 120.40937364 2.46484375 126.5 C2.35052002 127.59828125 2.35052002 127.59828125 2.23388672 128.71875 C2.069466 130.32245271 1.91008523 131.92667624 1.75439453 133.53125 C1.6717334 134.3459375 1.58907227 135.160625 1.50390625 136 C1.43115479 136.7425 1.35840332 137.485 1.28344727 138.25 C1 140 1 140 0 141 C-0.2646498 143.14691945 -0.46892595 145.30132296 -0.6484375 147.45703125 C-0.76794435 148.81187411 -0.8877464 150.16669096 -1.0078125 151.52148438 C-1.19136064 153.64904038 -1.37206253 155.77673708 -1.546875 157.9050293 C-2.21201639 165.91412527 -3.13224951 173.62460378 -5.29101562 181.40087891 C-6.24041621 184.88136051 -6.90689696 188.39737062 -7.5703125 191.94140625 C-8 194 -8 194 -9 197 C-11.99392393 196.6628464 -12.98831742 196.01189576 -15.140625 193.8203125 C-15.83671875 192.93085938 -16.5328125 192.04140625 -17.25 191.125 C-17.95640625 190.24070312 -18.6628125 189.35640625 -19.390625 188.4453125 C-21 186 -21 186 -21 183 C-21.59296875 182.91492188 -22.1859375 182.82984375 -22.796875 182.7421875 C-25.62928288 181.78800754 -26.50958854 180.52465822 -28.25 178.125 C-29.03117187 177.07699219 -29.03117187 177.07699219 -29.828125 176.0078125 C-31 174 -31 174 -31 171 C-32.32 170.67 -33.64 170.34 -35 170 C-35 168.68 -35 167.36 -35 166 C-35.61875 165.71125 -36.2375 165.4225 -36.875 165.125 C-39 164 -39 164 -41 162 C-41 161.01 -41 160.02 -41 159 C-42.32 158.34 -43.64 157.68 -45 157 C-45 156.01 -45 155.02 -45 154 C-45.61875 153.71125 -46.2375 153.4225 -46.875 153.125 C-49 152 -49 152 -51 150 C-51 149.01 -51 148.02 -51 147 C-52.32 146.34 -53.64 145.68 -55 145 C-55 144.01 -55 143.02 -55 142 C-55.61875 141.71125 -56.2375 141.4225 -56.875 141.125 C-59 140 -59 140 -61 138 C-61 137.01 -61 136.02 -61 135 C-62.32 134.34 -63.64 133.68 -65 133 C-65 132.01 -65 131.02 -65 130 C-65.928125 129.566875 -65.928125 129.566875 -66.875 129.125 C-69 128 -69 128 -71 126 C-71 125.01 -71 124.02 -71 123 C-72.32 122.34 -73.64 121.68 -75 121 C-75 120.01 -75 119.02 -75 118 C-75.58652344 117.73832031 -76.17304688 117.47664063 -76.77734375 117.20703125 C-81.77821169 114.49126993 -86.88628533 109.28428668 -89 104 C-89.10282412 98.44749732 -87.3283337 95.43138526 -83.6953125 91.5 C-81.38219616 89.45337172 -78.78507027 88.29538152 -76 87 C-75.67 86.01 -75.34 85.02 -75 84 C-74.34 84 -73.68 84 -73 84 C-72.76023438 83.443125 -72.52046875 82.88625 -72.2734375 82.3125 C-70.71928734 79.49023959 -68.8025826 77.37291393 -66.625 75 C-65.46871094 73.7315625 -65.46871094 73.7315625 -64.2890625 72.4375 C-62.85497452 70.91041655 -61.40067467 69.4017991 -59.91796875 67.921875 C-58.09002809 66.09021145 -56.38079305 64.20597574 -54.6875 62.25 C-54.089375 61.56421875 -53.49125 60.8784375 -52.875 60.171875 C-51.59547125 58.6897542 -50.32498986 57.19978636 -49.0625 55.703125 C-48.44375 54.97609375 -47.825 54.2490625 -47.1875 53.5 C-46.62417969 52.8296875 -46.06085938 52.159375 -45.48046875 51.46875 C-44 50 -44 50 -42 50 C-41.90525391 49.17242187 -41.90525391 49.17242187 -41.80859375 48.328125 C-40.65041122 44.99345453 -38.56721585 43.20799949 -36.0625 40.75 C-35.16660156 39.85796875 -34.27070313 38.9659375 -33.34765625 38.046875 C-31 36 -31 36 -29 36 C-29 34.68 -29 33.36 -29 32 C-28.34 32 -27.68 32 -27 32 C-27 31.34 -27 30.68 -27 30 C-26.34 30 -25.68 30 -25 30 C-24.773125 29.44828125 -24.54625 28.8965625 -24.3125 28.328125 C-22.61274074 25.31307583 -20.45195184 23.18769631 -18 20.75 C-17.113125 19.85796875 -16.22625 18.9659375 -15.3125 18.046875 C-13 16 -13 16 -11 16 C-10.90460938 15.4225 -10.80921875 14.845 -10.7109375 14.25 C-9.84524678 11.51023157 -8.57049235 10.10146009 -6.625 8 C-4.75336645 5.96111409 -3.04395902 4.06698517 -1.5234375 1.75 C-0.76933594 0.88375 -0.76933594 0.88375 0 0 Z " fill="#020202" transform="translate(247,174)"/>
<path d="M0 0 C3.61710176 0.56072975 5.05556748 1.78026991 7.375 4.5625 C7.97183594 5.27792969 8.56867188 5.99335938 9.18359375 6.73046875 C17 16.49677419 17 16.49677419 17 19 C17.66 19 18.32 19 19 19 C20.5078125 20.50390625 20.5078125 20.50390625 22.125 22.5625 C22.66382813 23.22378906 23.20265625 23.88507813 23.7578125 24.56640625 C25.46722137 27.9153425 25.29449037 30.26626522 25 34 C23.56640625 36.91503906 23.56640625 36.91503906 21.5625 39.765625 C20.83160156 40.82136719 20.10070312 41.87710938 19.34765625 42.96484375 C18.56541218 44.06011588 17.78285899 45.15516731 17 46.25 C15.88431641 47.85294922 15.88431641 47.85294922 14.74609375 49.48828125 C11.14171216 54.64724828 7.4602425 59.74574351 3.73828125 64.8203125 C0.26955916 69.56906611 -2.89056079 74.44084152 -5.92773438 79.47265625 C-8.6794716 83.8931572 -8.6794716 83.8931572 -12 85 C-11.82256792 72.80557701 -10.15614205 61.15550854 -7.81567383 49.18847656 C-6.49444615 42.32259292 -5.63988991 35.64487604 -5.32617188 28.65551758 C-5 26 -5 26 -3 23 C-1.22339985 15.47557583 -0.57565029 7.69553545 0 0 Z " fill="#0C0C0C" transform="translate(265,299)"/>
<path d="M0 0 C0.99 0 1.98 0 3 0 C4.44681324 2.89362649 4.43242376 5.8083009 4.71875 9.00390625 C4.79532012 10.99583131 4.79532012 10.99583131 6 12 C7.58612046 28.14959016 7.58612046 28.14959016 3.0625 34 C1.75373582 35.37792651 0.39622992 36.71078041 -1 38 C-2.56519356 39.53893193 -4.12765347 41.08064863 -5.6875 42.625 C-6.83798828 43.74455078 -6.83798828 43.74455078 -8.01171875 44.88671875 C-10.10225132 47.10867969 -11.48185143 49.41533418 -12.859375 52.1328125 C-14.97535887 55.59664911 -17.88884689 58.42238371 -20.63671875 61.390625 C-22.88889445 63.87732478 -24.9877053 66.42706058 -27.0625 69.0625 C-30.3125703 73.18833774 -33.72359863 77.12148672 -37.2421875 81.01953125 C-38.67422927 82.63296498 -40.03596204 84.30858363 -41.375 86 C-43 88 -43 88 -45 89 C-45.33 89.99 -45.66 90.98 -46 92 C-47.9375 94.1875 -47.9375 94.1875 -50 96 C-50.66 96 -51.32 96 -52 96 C-50.89285715 89.72619054 -49.71370472 85.41909817 -45 81 C-44.31822584 79.67432801 -43.64808564 78.34246312 -43 77 C-42.01 76.505 -42.01 76.505 -41 76 C-40.34786708 73.97536745 -40.34786708 73.97536745 -40 72 C-39.34 72 -38.68 72 -38 72 C-37.74863281 71.175 -37.49726563 70.35 -37.23828125 69.5 C-35.8234485 65.50097747 -34.07921452 61.79055414 -32.1875 58 C-31.85685547 57.31421875 -31.52621094 56.6284375 -31.18554688 55.921875 C-28.92654605 51.37785798 -26.30662926 47.83995656 -23 44 C-22.27954236 42.0187415 -21.61998741 40.01495907 -21 38 C-19.7533767 35.46179321 -18.44995564 32.9608959 -17.12109375 30.46484375 C-15.98409876 27.96503943 -15.42893793 25.70375479 -15 23 C-14.01 23 -13.02 23 -12 23 C-11.74089844 22.13503906 -11.48179687 21.27007812 -11.21484375 20.37890625 C-9.97700409 16.93604031 -8.44244374 14.07073957 -6.5625 10.9375 C-5.96566406 9.93589844 -5.36882812 8.93429688 -4.75390625 7.90234375 C-4.17511719 6.94457031 -3.59632813 5.98679688 -3 5 C-2.49339844 4.05253906 -1.98679688 3.10507813 -1.46484375 2.12890625 C-0.98144531 1.42636719 -0.49804688 0.72382813 0 0 Z " fill="#0E0E0E" transform="translate(232,130)"/>
<path d="M0 0 C0.144375 1.134375 0.28875 2.26875 0.4375 3.4375 C0.61171478 6.80777201 0.61171478 6.80777201 2 8 C2.14115161 10.67058851 2.04247107 13.32432238 2 16 C-3.98641739 15.10885205 -8.88253515 14.36675319 -14 11 C-15.48952146 10.46959845 -16.99109897 9.97245918 -18.5 9.5 C-22.01950552 8.39103474 -24.86643663 6.9696684 -28 5 C-30.19130534 4.30420546 -30.19130534 4.30420546 -32 4 C-32 3.01 -32 2.02 -32 1 C-21.32089373 0.36850058 -10.7016389 -0.17291697 0 0 Z " fill="#F2F2F2" transform="translate(276,202)"/>
<path d="M0 0 C0.66 0 1.32 0 2 0 C2 8.25 2 16.5 2 25 C-3.84820785 24.16454174 -6.17000125 23.70382643 -10.9375 20.9375 C-11.89527344 20.38964844 -12.85304688 19.84179688 -13.83984375 19.27734375 C-14.55269531 18.85582031 -15.26554687 18.43429688 -16 18 C-15.34 16.35 -14.68 14.7 -14 13 C-13.34 13 -12.68 13 -12 13 C-12 12.34 -12 11.68 -12 11 C-11.34 11 -10.68 11 -10 11 C-10 10.34 -10 9.68 -10 9 C-8.3203125 7.34375 -8.3203125 7.34375 -6.125 5.5 C-4.00964496 3.71066742 -1.95980876 1.95980876 0 0 Z " fill="#0A0A0A" transform="translate(274,144)"/>
<path d="M0 0 C1.01015167 -0.00065712 1.01015167 -0.00065712 2.04071045 -0.00132751 C4.26482215 0.00076117 6.48817834 0.02409467 8.7121582 0.04760742 C10.25486336 0.05320313 11.79757386 0.05747335 13.34028625 0.06047058 C17.39941137 0.07192146 21.45821411 0.10139048 25.51721191 0.13458252 C29.65962361 0.16527831 33.80208742 0.17897485 37.94458008 0.1940918 C46.07168109 0.22626018 54.19852016 0.27745919 62.32543945 0.34057617 C60.32543945 2.34057617 60.32543945 2.34057617 57.54135132 2.58108521 C56.35554474 2.57664398 55.16973816 2.57220276 53.94799805 2.56762695 C53.29421677 2.56791901 52.64043549 2.56821106 51.96684265 2.56851196 C49.80238649 2.56711682 47.6382731 2.55154737 45.47387695 2.53588867 C43.97458077 2.53215919 42.47528215 2.52931191 40.97598267 2.52731323 C37.02707202 2.51967165 33.07830816 2.50001877 29.12945557 2.47790527 C25.10105373 2.45745807 21.07262821 2.44831393 17.04418945 2.43823242 C9.13787204 2.41677328 1.231674 2.38263112 -6.67456055 2.34057617 C-7.63443448 5.93412555 -7.97699445 9.37534629 -8.23706055 13.09057617 C-8.32084961 14.26104492 -8.40463867 15.43151367 -8.4909668 16.63745117 C-8.55155273 17.52948242 -8.61213867 18.42151367 -8.67456055 19.34057617 C-9.33456055 19.34057617 -9.99456055 19.34057617 -10.67456055 19.34057617 C-10.65651367 20.3125293 -10.6384668 21.28448242 -10.61987305 22.28588867 C-10.62206387 26.63466421 -11.05094933 30.89924024 -11.54956055 35.21557617 C-11.62819336 35.98643555 -11.70682617 36.75729492 -11.7878418 37.55151367 C-12.00979556 39.49104808 -12.33385844 41.41834329 -12.67456055 43.34057617 C-13.66456055 43.83557617 -13.66456055 43.83557617 -14.67456055 44.34057617 C-14.33973323 34.80377051 -13.59504001 25.83084624 -11.36206055 16.51245117 C-10.55309045 12.7801573 -10.23449193 9.13887505 -10.08081055 5.32885742 C-8.95169202 -0.19730923 -4.91071536 -0.02683451 0 0 Z " fill="#C9C9C9" transform="translate(263.674560546875,259.659423828125)"/>
<path d="M0 0 C0.99 0.495 0.99 0.495 2 1 C-2.37292004 5.4525405 -6.03693096 7.40677148 -12.32421875 7.68115234 C-14.77885085 7.68021012 -17.23362154 7.64676618 -19.6875 7.5859375 C-20.98574707 7.57744781 -22.28399414 7.56895813 -23.62158203 7.56021118 C-27.04827089 7.53746483 -30.47339731 7.47867251 -33.8994751 7.4119873 C-37.40542471 7.35025244 -40.91163054 7.32313032 -44.41796875 7.29296875 C-51.27928164 7.22890901 -58.13956551 7.1267081 -65 7 C-64.45859375 7.72316406 -64.45859375 7.72316406 -63.90625 8.4609375 C-63.4421875 9.09257812 -62.978125 9.72421875 -62.5 10.375 C-61.80390625 11.31472656 -61.80390625 11.31472656 -61.09375 12.2734375 C-60 14 -60 14 -60 16 C-60.99 16 -61.98 16 -63 16 C-66 11.77777778 -66 11.77777778 -66 9 C-66.66 9 -67.32 9 -68 9 C-68 7.68 -68 6.36 -68 5 C-66.84290527 4.97494385 -65.68581055 4.9498877 -64.49365234 4.92407227 C-52.48690191 4.66161977 -40.48093778 4.37398256 -28.4753418 4.06317139 C-26.2889472 4.00737401 -24.10251214 3.95444195 -21.91601562 3.90283203 C-18.81826321 3.82551926 -15.72190203 3.73035739 -12.625 3.625 C-11.34761963 3.59708374 -11.34761963 3.59708374 -10.04443359 3.56860352 C-5.80873942 3.40040711 -3.06723325 3.06723325 0 0 Z " fill="#C0C0C0" transform="translate(336,269)"/>
<path d="M0 0 C0 23.43 0 46.86 0 71 C-0.66 70.67 -1.32 70.34 -2 70 C-2.33 48.22 -2.66 26.44 -3 4 C-4.65 5.65 -6.3 7.3 -8 9 C-10.3125 9.8125 -10.3125 9.8125 -12 10 C-11.57847656 9.51789063 -11.15695312 9.03578125 -10.72265625 8.5390625 C-10.17480469 7.90742187 -9.62695312 7.27578125 -9.0625 6.625 C-8.51722656 5.99851562 -7.97195313 5.37203125 -7.41015625 4.7265625 C-5.93041376 3.04367666 -5.93041376 3.04367666 -5 1 C-2 0 -2 0 0 0 Z " fill="#C1C1C1" transform="translate(291,110)"/>
<path d="M0 0 C2.475 0.495 2.475 0.495 5 1 C5.00142502 1.86808289 5.00285004 2.73616577 5.00431824 3.6305542 C5.02214825 11.8117535 5.06376134 19.99241169 5.13209057 28.17335129 C5.16638088 32.37931193 5.19147364 36.58490858 5.19555664 40.79101562 C5.19983536 44.85028648 5.22826118 48.90873595 5.27343178 52.96775055 C5.28642069 54.51624009 5.29070948 56.06482786 5.28615379 57.61336517 C5.28125705 59.78318439 5.30729137 61.95059424 5.34057617 64.12011719 C5.34723801 65.35477722 5.35389984 66.58943726 5.36076355 67.86151123 C6.17753854 71.87166918 7.7179509 72.72194059 11 75 C11.8125 77.75 11.8125 77.75 12 80 C10 79 10 79 8.625 76.5625 C7.05315862 73.59670451 7.05315862 73.59670451 3 72 C3 48.57 3 25.14 3 1 C2.01 1.33 1.02 1.66 0 2 C0 1.34 0 0.68 0 0 Z " fill="#3F3F3F" transform="translate(288,109)"/>
<path d="M0 0 C1.27685165 0.00222061 2.55370331 0.00444122 3.86924744 0.00672913 C4.57165054 0.0065831 5.27405365 0.00643707 5.9977417 0.00628662 C8.32985983 0.00698579 10.66189904 0.01477835 12.9940033 0.02259827 C14.60683142 0.02446243 16.21966012 0.02588634 17.83248901 0.02688599 C22.08550062 0.03071129 26.33847828 0.04054167 30.59147644 0.05158997 C34.92812135 0.06180383 39.26477171 0.06638355 43.60142517 0.07142639 C52.11641474 0.08216393 60.63137667 0.09924049 69.14634705 0.12025452 C69.14634705 0.45025452 69.14634705 0.78025452 69.14634705 1.12025452 C68.28635101 1.12834137 67.42635498 1.13642822 66.54029846 1.14476013 C58.44691145 1.22260879 50.353693 1.30986963 42.26052284 1.4077816 C38.09945147 1.45778851 33.93840603 1.50411792 29.77720642 1.54212952 C25.76355838 1.57892714 21.75012504 1.62527154 17.73666 1.67831802 C16.20325348 1.69689147 14.66980089 1.71198847 13.13632584 1.72359848 C10.99311958 1.74041093 8.85040823 1.7694324 6.7073822 1.80140686 C5.48604584 1.81473053 4.26470947 1.8280542 3.00636292 1.84178162 C0.01581138 1.82728795 0.01581138 1.82728795 -1.85365295 4.12025452 C-2.29805317 6.57462174 -2.6449921 8.95929598 -2.91615295 11.43275452 C-3.41673108 15.69801111 -3.93560715 19.91999185 -4.85365295 24.12025452 C-5.18365295 24.12025452 -5.51365295 24.12025452 -5.85365295 24.12025452 C-5.85365295 19.17025452 -5.85365295 14.22025452 -5.85365295 9.12025452 C-5.19365295 9.12025452 -4.53365295 9.12025452 -3.85365295 9.12025452 C-3.87427795 7.82087952 -3.89490295 6.52150452 -3.91615295 5.18275452 C-3.9376475 3.82859818 -3.92513494 2.47269369 -3.85365295 1.12025452 C-2.85365295 0.12025452 -2.85365295 0.12025452 0 0 Z " fill="#444444" transform="translate(256.85365295410156,258.87974548339844)"/>
<path d="M0 0 C0.84770199 2.85690723 1.05638835 5.05941337 0.6953125 8.01171875 C0.60636719 8.77033203 0.51742187 9.52894531 0.42578125 10.31054688 C0.32652344 11.09494141 0.22726563 11.87933594 0.125 12.6875 C0.03347656 13.45255859 -0.05804688 14.21761719 -0.15234375 15.00585938 C-0.33711787 16.55041487 -0.52559066 18.09453242 -0.71777344 19.63818359 C-1.10049501 22.84099375 -1.4146938 26.05023107 -1.72314453 29.26098633 C-2 31 -2 31 -3 32 C-3.2646498 34.14691945 -3.46892595 36.30132296 -3.6484375 38.45703125 C-3.76794435 39.81187411 -3.8877464 41.16669096 -4.0078125 42.52148438 C-4.19136064 44.64904038 -4.37206253 46.77673708 -4.546875 48.9050293 C-5.28844453 57.83441122 -6.48266784 66.36167314 -9 75 C-10.0697637 71.25029204 -9.7812936 68.61583904 -9.125 64.75 C-8.14855036 58.51776103 -7.62522381 52.36748342 -7.34228516 46.06738281 C-7.09867243 41.09867243 -7.09867243 41.09867243 -6 40 C-4.53644234 33.16244154 -3.74741437 26.24467722 -3.24609375 19.27734375 C-3 17 -3 17 -2 14 C-1.80154832 12.16983448 -1.63817103 10.33570086 -1.5 8.5 C-1.26621969 5.39406158 -0.98926426 2.96779278 0 0 Z " fill="#3F3F3F" transform="translate(250,283)"/>
<path d="M0 0 C0.99 0 1.98 0 3 0 C3.144375 1.134375 3.28875 2.26875 3.4375 3.4375 C3.61171478 6.80777201 3.61171478 6.80777201 5 8 C5.07179964 9.51928038 5.08392007 11.04167482 5.0625 12.5625 C5.05347656 13.38878906 5.04445312 14.21507813 5.03515625 15.06640625 C5.01775391 16.02353516 5.01775391 16.02353516 5 17 C5.66 17 6.32 17 7 17 C7 20.3 7 23.6 7 27 C7.66 27 8.32 27 9 27 C9 30.3 9 33.6 9 37 C9.66 37 10.32 37 11 37 C11 41.62 11 46.24 11 51 C15 49.5 15 49.5 16 47 C16.66 47.33 17.32 47.66 18 48 C16.25 50.5 16.25 50.5 14 53 C12.68 53 11.36 53 10 53 C9.96261719 52.41734375 9.92523438 51.8346875 9.88671875 51.234375 C9.50828431 46.51507486 8.8461083 42.07755782 7.625 37.5 C6.01376282 31.43416593 4.98104668 25.3348537 4.00244141 19.14257812 C3.37431233 15.03779168 3.37431233 15.03779168 2.46337891 10.99023438 C1.76666985 7.99783595 1.9411968 5.05776623 2 2 C0.02 2.99 0.02 2.99 -2 4 C-1.34 2.68 -0.68 1.36 0 0 Z " fill="#555555" transform="translate(240,92)"/>
<path d="M0 0 C19.8 0 39.6 0 60 0 C60 0.33 60 0.66 60 1 C40.53 1 21.06 1 1 1 C3.475 4.465 3.475 4.465 6 8 C6 8.66 6 9.32 6 10 C5.01 10 4.02 10 3 10 C0.13789948 6.28986969 0 4.90258766 0 0 Z " fill="#848484" transform="translate(270,275)"/>
<path d="M0 0 C0.66 0 1.32 0 2 0 C2 8.25 2 16.5 2 25 C1.67 25 1.34 25 1 25 C0.505 15.1 0.505 15.1 0 5 C-2.31 7.31 -4.62 9.62 -7 12 C-7.99 12 -8.98 12 -10 12 C-10 12.66 -10 13.32 -10 14 C-10.99 14 -11.98 14 -13 14 C-13.33 15.32 -13.66 16.64 -14 18 C-14.66 18 -15.32 18 -16 18 C-15.34 16.35 -14.68 14.7 -14 13 C-13.34 13 -12.68 13 -12 13 C-12 12.34 -12 11.68 -12 11 C-11.34 11 -10.68 11 -10 11 C-10 10.34 -10 9.68 -10 9 C-8.3203125 7.34375 -8.3203125 7.34375 -6.125 5.5 C-4.00964496 3.71066742 -1.95980876 1.95980876 0 0 Z " fill="#3F3F3F" transform="translate(274,144)"/>
<path d="M0 0 C1.32 0.33 2.64 0.66 4 1 C3.01 1 2.02 1 1 1 C1.02320313 1.65484375 1.04640625 2.3096875 1.0703125 2.984375 C1.41426612 20.37860082 1.41426612 20.37860082 -3 27 C-3.45276748 29.02249579 -3.45276748 29.02249579 -3.6328125 31.23046875 C-3.71660156 32.03291016 -3.80039062 32.83535156 -3.88671875 33.66210938 C-3.96535156 34.49548828 -4.04398437 35.32886719 -4.125 36.1875 C-4.21136719 37.03248047 -4.29773438 37.87746094 -4.38671875 38.74804688 C-4.5985739 40.83128923 -4.80026777 42.91556042 -5 45 C-5.33 45 -5.66 45 -6 45 C-5.86184471 41.18718055 -5.71319438 37.37484283 -5.5625 33.5625 C-5.52318359 32.47388672 -5.48386719 31.38527344 -5.44335938 30.26367188 C-5.40146484 29.22919922 -5.35957031 28.19472656 -5.31640625 27.12890625 C-5.27974854 26.17056885 -5.24309082 25.21223145 -5.20532227 24.22485352 C-5 22 -5 22 -4 21 C-3.77475615 19.0371607 -3.55245212 17.07355278 -3.37890625 15.10546875 C-3 13 -3 13 -2.00390625 11.03515625 C-0.8546364 8.70531349 -0.60249756 6.82830564 -0.375 4.25 C-0.26285156 3.05117188 -0.26285156 3.05117188 -0.1484375 1.828125 C-0.09945313 1.22484375 -0.05046875 0.6215625 0 0 Z " fill="#9D9D9D" transform="translate(264,298)"/>
<path d="M0 0 C1 3 1 3 0 6 C0.99 6 1.98 6 3 6 C1.63016497 9.16115776 1.0109362 9.9927092 -2 12 C-2.33 12.99 -2.66 13.98 -3 15 C-4.9375 17.1875 -4.9375 17.1875 -7 19 C-7.66 19 -8.32 19 -9 19 C-7.89285715 12.72619054 -6.71370472 8.41909817 -2 4 C-0.76487921 1.86690808 -0.76487921 1.86690808 0 0 Z " fill="#484848" transform="translate(189,207)"/>
<path d="M0 0 C1.32 0 2.64 0 4 0 C4.13277344 0.63808594 4.26554688 1.27617187 4.40234375 1.93359375 C4.57894531 2.75988281 4.75554687 3.58617187 4.9375 4.4375 C5.11152344 5.26121094 5.28554687 6.08492187 5.46484375 6.93359375 C5.80752994 8.97661204 5.80752994 8.97661204 7 10 C7.09934776 11.68385075 7.1308005 13.37181597 7.1328125 15.05859375 C7.13474609 16.59676758 7.13474609 16.59676758 7.13671875 18.16601562 C7.13285156 19.24560547 7.12898437 20.32519531 7.125 21.4375 C7.12886719 22.51322266 7.13273438 23.58894531 7.13671875 24.69726562 C7.13542969 25.72400391 7.13414062 26.75074219 7.1328125 27.80859375 C7.13168457 28.75532959 7.13055664 29.70206543 7.12939453 30.67749023 C7 33 7 33 6 35 C5.34 35 4.68 35 4 35 C4.33 34.01 4.66 33.02 5 32 C5.09636449 29.11473389 5.13927947 26.25945222 5.125 23.375 C5.12886719 22.58609375 5.13273438 21.7971875 5.13671875 20.984375 C5.49980595 17.18554666 5.49980595 17.18554666 4 14 C3.76636119 12.15108054 3.58696365 10.29511969 3.4375 8.4375 C3.35371094 7.42558594 3.26992187 6.41367188 3.18359375 5.37109375 C3.12300781 4.58863281 3.06242188 3.80617187 3 3 C2.01 3 1.02 3 0 3 C-0.12375 3.639375 -0.2475 4.27875 -0.375 4.9375 C-0.58125 5.618125 -0.7875 6.29875 -1 7 C-1.99 7.495 -1.99 7.495 -3 8 C-3 6.68 -3 5.36 -3 4 C-2.34 4 -1.68 4 -1 4 C-0.67 2.68 -0.34 1.36 0 0 Z " fill="#B7B7B7" transform="translate(232,127)"/>
<path d="M0 0 C0.33 0 0.66 0 1 0 C1.02684679 2.64590014 1.04676357 5.29153096 1.0625 7.9375 C1.07087891 8.69224609 1.07925781 9.44699219 1.08789062 10.22460938 C1.09652441 12.14994313 1.05224333 14.07535581 1 16 C0.67 16.33 0.34 16.66 0 17 C-0.23427778 19.01594582 -0.41336124 21.038474 -0.5625 23.0625 C-0.64628906 24.16722656 -0.73007813 25.27195312 -0.81640625 26.41015625 C-0.87699219 27.26480469 -0.93757812 28.11945313 -1 29 C-1.66 29 -2.32 29 -3 29 C-2.979375 30.2375 -2.95875 31.475 -2.9375 32.75 C-2.93233319 35.6640825 -3.06984442 38.20953327 -4 41 C-5.32 40.67 -6.64 40.34 -8 40 C-8 39.34 -8 38.68 -8 38 C-7.34 38 -6.68 38 -6 38 C-5.89042969 37.20078125 -5.78085938 36.4015625 -5.66796875 35.578125 C-4.85612911 29.95465042 -3.9333514 24.48478847 -2.4375 19 C-0.77302194 12.71197176 -0.30313279 6.48077009 0 0 Z " fill="#C6C6C6" transform="translate(244,333)"/>
<path d="M0 0 C3.45423401 6.45791576 3.68441919 12.76340555 4 20 C-1.75 19.25 -1.75 19.25 -4 17 C-2.02 17.33 -0.04 17.66 2 18 C1.855625 16.700625 1.71125 15.40125 1.5625 14.0625 C1.44068359 12.96615234 1.44068359 12.96615234 1.31640625 11.84765625 C1.18113386 9.98859771 1.18113386 9.98859771 0 9 C0 6.69 0 4.38 0 2 C-8.415 2.495 -8.415 2.495 -17 3 C-14.0346117 1.02307447 -13.00879965 0.68681771 -9.625 0.375 C-8.83480469 0.30152344 -8.04460937 0.22804687 -7.23046875 0.15234375 C-4.81332553 -0.0127501 -2.42195612 -0.07812762 0 0 Z " fill="#585858" transform="translate(276,200)"/>
<path d="M0 0 C1.49588887 3.9591192 0.50946793 7.14247923 -0.375 11.1875 C-2.15201734 19.76689562 -2.68630879 28.25991399 -3 37 C-2.34 37.33 -1.68 37.66 -1 38 C-2.32 38.66 -3.64 39.32 -5 40 C-4.86186975 35.85387186 -4.71321141 31.70818838 -4.5625 27.5625 C-4.52318359 26.37849609 -4.48386719 25.19449219 -4.44335938 23.97460938 C-4.40146484 22.84990234 -4.35957031 21.72519531 -4.31640625 20.56640625 C-4.27974854 19.52427979 -4.24309082 18.48215332 -4.20532227 17.40844727 C-4 15 -4 15 -3 14 C-2.62819644 12.02769832 -2.30199332 10.04669048 -2 8.0625 C-1.10806175 2.2161235 -1.10806175 2.2161235 0 0 Z " fill="#BDBDBD" transform="translate(257,346)"/>
<path d="M0 0 C4.62 0 9.24 0 14 0 C14 0.33 14 0.66 14 1 C11.03 1 8.06 1 5 1 C6.98013516 4.96027032 12.34077874 6.42216175 16.35546875 7.8203125 C17.88468349 8.30699726 19.41461024 8.79145167 20.9453125 9.2734375 C23.52742622 10.18650433 25.73730608 11.46720735 28 13 C27.01 13.495 27.01 13.495 26 14 C24.08549906 13.0595434 22.17444951 12.11082238 20.2890625 11.11328125 C17.99379935 9.99698433 15.74631111 9.19857471 13.3125 8.4375 C9.86183674 7.35249763 7.07220744 5.93110182 4 4 C1.80869466 3.30420546 1.80869466 3.30420546 0 3 C0 2.01 0 1.02 0 0 Z " fill="#848484" transform="translate(244,203)"/>
<path d="M0 0 C0.33 0 0.66 0 1 0 C1.12524462 7.26418787 1.12524462 7.26418787 0.5 10.9375 C-0.15918254 14.97499309 -0.08161869 18.91906573 0 23 C0.66 22.67 1.32 22.34 2 22 C1.1875 24.4375 1.1875 24.4375 0 27 C-0.99 27.33 -1.98 27.66 -3 28 C-2.22095672 9.17995444 -2.22095672 9.17995444 0 0 Z " fill="#646464" transform="translate(256,356)"/>
<path d="M0 0 C1.32 0 2.64 0 4 0 C4 9.24 4 18.48 4 28 C2.68 28.33 1.36 28.66 0 29 C0 28.34 0 27.68 0 27 C-0.99 27 -1.98 27 -3 27 C-2.67 26.34 -2.34 25.68 -2 25 C-0.35 25.33 1.3 25.66 3 26 C3 17.75 3 9.5 3 1 C2.01 1.33 1.02 1.66 0 2 C0 1.34 0 0.68 0 0 Z " fill="#A3A3A3" transform="translate(273,143)"/>
<path d="M0 0 C0.33 0 0.66 0 1 0 C1.02684679 2.64590014 1.04676357 5.29153096 1.0625 7.9375 C1.07087891 8.69224609 1.07925781 9.44699219 1.08789062 10.22460938 C1.09652441 12.14994313 1.05224333 14.07535581 1 16 C0.67 16.33 0.34 16.66 0 17 C-0.28101946 19.31952569 -0.44782625 21.63885514 -0.62109375 23.96875 C-0.74613281 24.6390625 -0.87117187 25.309375 -1 26 C-1.66 26.33 -2.32 26.66 -3 27 C-2.85980308 24.18711295 -2.71312045 21.37483115 -2.5625 18.5625 C-2.52318359 17.76005859 -2.48386719 16.95761719 -2.44335938 16.13085938 C-2.11328125 10.11328125 -2.11328125 10.11328125 -1 9 C-0.76807135 7.48530552 -0.58784762 5.96245438 -0.4375 4.4375 C-0.35371094 3.61121094 -0.26992187 2.78492188 -0.18359375 1.93359375 C-0.12300781 1.29550781 -0.06242188 0.65742188 0 0 Z " fill="#BCBCBC" transform="translate(248,305)"/>
<path d="M0 0 C0.66 0.33 1.32 0.66 2 1 C1.67 1.33 1.34 1.66 1 2 C0.62219007 4.75092859 0.29198908 7.48979073 0 10.25 C-1.0041841 19.55439331 -1.0041841 19.55439331 -2 24 C-2.33 24 -2.66 24 -3 24 C-3 19.05 -3 14.1 -3 9 C-2.34 9 -1.68 9 -1 9 C-1.020625 7.700625 -1.04125 6.40125 -1.0625 5.0625 C-1.08399454 3.70834367 -1.07148199 2.35243917 -1 1 C-0.67 0.67 -0.34 0.34 0 0 Z " fill="#3A3A3A" transform="translate(254,259)"/>
<path d="M0 0 C0.66 0 1.32 0 2 0 C0.47038014 3.44164469 -1.62729066 6.09151758 -4 9 C-4.33 9.66 -4.66 10.32 -5 11 C-7.90050829 12.88141079 -10.88656995 14.50094109 -14 16 C-14 15.34 -14 14.68 -14 14 C-13.030625 13.195625 -12.06125 12.39125 -11.0625 11.5625 C-7.80624673 9.29315623 -7.80624673 9.29315623 -7 6 C-5.34467377 4.98133771 -3.67739862 3.98189187 -2 3 C-1.34 2.01 -0.68 1.02 0 0 Z " fill="#5D5D5D" transform="translate(272,123)"/>
<path d="M0 0 C0 3.86251359 -1.1097764 4.58286316 -3.6875 7.375 C-4.41324219 8.16519531 -5.13898438 8.95539063 -5.88671875 9.76953125 C-8.21615316 12.22813947 -10.56749598 14.64351173 -13 17 C-13 13.45042562 -12.51411281 13.11575285 -10.15625 10.64453125 C-9.56972656 10.02255859 -8.98320312 9.40058594 -8.37890625 8.75976562 C-7.75886719 8.11716797 -7.13882813 7.47457031 -6.5 6.8125 C-5.87996094 6.15830078 -5.25992188 5.50410156 -4.62109375 4.83007812 C-3.0872384 3.21363056 -1.54678589 1.60406254 0 0 Z " fill="#929292" transform="translate(197,229)"/>
<path d="M0 0 C0.99 0 1.98 0 3 0 C4.60725635 3.21451269 4.05748185 6.43612536 4 10 C3.67 10 3.34 10 3 10 C3 8.02 3 6.04 3 4 C2.401875 4.66 1.80375 5.32 1.1875 6 C-1 8 -1 8 -4 8 C-2.66666667 5.33333333 -1.33333333 2.66666667 0 0 Z " fill="#353535" transform="translate(232,130)"/>
<path d="M0 0 C0.33 0 0.66 0 1 0 C1.40850553 7.08076251 -0.09579269 13.19925959 -2 20 C-3.37458951 16.14727729 -2.7321783 12.85908778 -2.125 8.875 C-1.94195312 7.63492187 -1.75890625 6.39484375 -1.5703125 5.1171875 C-1 2 -1 2 0 0 Z " fill="#636363" transform="translate(243,338)"/>
<path d="M0 0 C1.33332095 2.6666419 0.67102033 4.16680303 0 7 C-0.66 7 -1.32 7 -2 7 C-2.0825 7.598125 -2.165 8.19625 -2.25 8.8125 C-3.20455872 11.5966296 -4.57132271 12.43311142 -7 14 C-5.53967505 8.68972746 -3.01679014 4.53669968 0 0 Z " fill="#4E4E4E" transform="translate(227,139)"/>
<path d="M0 0 C1.125 3.75 1.125 3.75 0 6 C-0.66 6 -1.32 6 -2 6 C-2 7.32 -2 8.64 -2 10 C-2.66 10 -3.32 10 -4 10 C-4 11.32 -4 12.64 -4 14 C-4.99 14 -5.98 14 -7 14 C-5.53967505 8.68972746 -3.01679014 4.53669968 0 0 Z " fill="#B0B0B0" transform="translate(229,110)"/>
<path d="M0 0 C0.99 0 1.98 0 3 0 C0.84682713 10.15317287 0.84682713 10.15317287 -2.6875 13.6875 C-3.450625 14.120625 -4.21375 14.55375 -5 15 C-3.99806563 11.20696275 -3.18975773 8.28463659 -1 5 C-0.61500109 3.34450469 -0.27206865 1.6777567 0 0 Z " fill="#6F6F6F" transform="translate(217,153)"/>
<path d="M0 0 C0.66 0 1.32 0 2 0 C1.38722388 2.96175123 0.74627478 4.38058783 -1 7 C-3.625 7.6875 -3.625 7.6875 -6 8 C-6.66 6.68 -7.32 5.36 -8 4 C-6.68 4.33 -5.36 4.66 -4 5 C-3.34 4.01 -2.68 3.02 -2 2 C-1.34 2 -0.68 2 0 2 C0 1.34 0 0.68 0 0 Z " fill="#7C7C7C" transform="translate(256,400)"/>
<path d="M0 0 C0.66 0 1.32 0 2 0 C3.32388229 6.43028541 4.24794402 12.4294834 4 19 C3.67 19 3.34 19 3 19 C0.98832325 13.21642935 0.77915376 8.09781001 1 2 C0.34 1.67 -0.32 1.34 -1 1 C-0.67 0.67 -0.34 0.34 0 0 Z " fill="#C9C9C9" transform="translate(240,94)"/>
<path d="M0 0 C0.66 0.33 1.32 0.66 2 1 C1.67 1.99 1.34 2.98 1 4 C1.66 4 2.32 4 3 4 C3 4.66 3 5.32 3 6 C2.34 6 1.68 6 1 6 C1 6.66 1 7.32 1 8 C0.34 8 -0.32 8 -1 8 C-1 8.66 -1 9.32 -1 10 C-1.66 10 -2.32 10 -3 10 C-2.49287967 6.28111761 -1.88391785 3.26545761 0 0 Z " fill="#B8B8B8" transform="translate(179,222)"/>
<path d="M0 0 C0.33 0.66 0.66 1.32 1 2 C0.34 2 -0.32 2 -1 2 C-0.34 3.98 0.32 5.96 1 8 C-0.28965176 9.37562854 -1.62689293 10.70766393 -3 12 C-3.66 12 -4.32 12 -5 12 C-4.32823171 8.19331304 -3.39463134 4.60963407 -2 1 C-1.34 0.67 -0.68 0.34 0 0 Z " fill="#737373" transform="translate(185,214)"/>
<path d="M0 0 C0.99 0 1.98 0 3 0 C1.94124926 3.40312738 0.99097846 6.01353231 -1 9 C-1.66 9 -2.32 9 -3 9 C-3.33 10.65 -3.66 12.3 -4 14 C-5.24546405 11.50907189 -4.7767578 10.58919267 -4 8 C-3.34 8 -2.68 8 -2 8 C-2 6.68 -2 5.36 -2 4 C-1.34 4 -0.68 4 0 4 C0 2.68 0 1.36 0 0 Z " fill="#949494" transform="translate(195,193)"/>
<path d="M0 0 C0 2 0 2 -1.42578125 3.54296875 C-2.04839844 4.08566406 -2.67101562 4.62835938 -3.3125 5.1875 C-3.92738281 5.73792969 -4.54226562 6.28835937 -5.17578125 6.85546875 C-5.77777344 7.23316406 -6.37976563 7.61085937 -7 8 C-7.99 7.67 -8.98 7.34 -10 7 C-9.09827532 5.82174642 -8.17798498 4.65768423 -7.25 3.5 C-6.73953125 2.8503125 -6.2290625 2.200625 -5.703125 1.53125 C-4 0 -4 0 0 0 Z " fill="#2A2A2A" transform="translate(251,174)"/>
<path d="M0 0 C1.32 0 2.64 0 4 0 C4 1.65 4 3.3 4 5 C3.67 4.34 3.34 3.68 3 3 C2.01 3 1.02 3 0 3 C-0.12375 3.639375 -0.2475 4.27875 -0.375 4.9375 C-0.58125 5.618125 -0.7875 6.29875 -1 7 C-1.99 7.495 -1.99 7.495 -3 8 C-3 6.68 -3 5.36 -3 4 C-2.34 4 -1.68 4 -1 4 C-0.67 2.68 -0.34 1.36 0 0 Z " fill="#A7A7A7" transform="translate(232,127)"/>
<path d="M0 0 C0.33 0.66 0.66 1.32 1 2 C0.34 2 -0.32 2 -1 2 C-1 3.32 -1 4.64 -1 6 C-1.66 6 -2.32 6 -3 6 C-3.33 8.64 -3.66 11.28 -4 14 C-4.99 14 -5.98 14 -7 14 C-6.01 11.03 -5.02 8.06 -4 5 C-3.34 5 -2.68 5 -2 5 C-2 3.68 -2 2.36 -2 1 C-1.34 0.67 -0.68 0.34 0 0 Z " fill="#818181" transform="translate(187,182)"/>
<path d="M0 0 C0.6875 1.6875 0.6875 1.6875 1 4 C-0.64076492 7.44560634 -1.78512442 8.85674962 -5 11 C-3.77472971 6.94718288 -2.30119506 3.55639236 0 0 Z " fill="#515151" transform="translate(203,182)"/>
<path d="M0 0 C0.66 0.33 1.32 0.66 2 1 C1.66354211 4.14027363 0.94763914 5.05098295 -1.375 7.3125 C-2.674375 8.1478125 -2.674375 8.1478125 -4 9 C-4.99 8.67 -5.98 8.34 -7 8 C-4.69 5.36 -2.38 2.72 0 0 Z " fill="#BABABA" transform="translate(286,111)"/>
<path d="M0 0 C0.33 0 0.66 0 1 0 C1.33 1.65 1.66 3.3 2 5 C2.66 4.67 3.32 4.34 4 4 C3.1875 6.4375 3.1875 6.4375 2 9 C1.01 9.33 0.02 9.66 -1 10 C-0.67 6.7 -0.34 3.4 0 0 Z " fill="#4F4F4F" transform="translate(254,374)"/>
<path d="M0 0 C3.48670834 1.1094072 6.77484237 2.26337666 10 4 C10 4.66 10 5.32 10 6 C7.03 5.505 7.03 5.505 4 5 C4 4.34 4 3.68 4 3 C2.68 3 1.36 3 0 3 C0 2.01 0 1.02 0 0 Z " fill="#505050" transform="translate(318,238)"/>
<path d="M0 0 C3.48670834 1.1094072 6.77484237 2.26337666 10 4 C10 4.66 10 5.32 10 6 C7.03 5.505 7.03 5.505 4 5 C4 4.34 4 3.68 4 3 C2.68 3 1.36 3 0 3 C0 2.01 0 1.02 0 0 Z " fill="#B6B6B6" transform="translate(338,232)"/>
<path d="M0 0 C3.48670834 1.1094072 6.77484237 2.26337666 10 4 C10 4.66 10 5.32 10 6 C7.03 5.505 7.03 5.505 4 5 C4 4.34 4 3.68 4 3 C2.68 3 1.36 3 0 3 C0 2.01 0 1.02 0 0 Z " fill="#B7B7B7" transform="translate(316,220)"/>
<path d="M0 0 C2 3 2 3 2 7 C-3.75 6.25 -3.75 6.25 -6 4 C-3.03 4.495 -3.03 4.495 0 5 C0 3.35 0 1.7 0 0 Z " fill="#9F9F9F" transform="translate(278,213)"/>
<path d="M0 0 C1.24546405 2.49092811 0.7767578 3.41080733 0 6 C-0.66 6 -1.32 6 -2 6 C-2 7.32 -2 8.64 -2 10 C-2.99 10 -3.98 10 -5 10 C-3.84414715 6.08788267 -2.64465038 3.1254959 0 0 Z " fill="#ADADAD" transform="translate(221,124)"/>
<path d="M0 0 C0.99928333 2.698065 1.03624754 3.88010429 0.1875 6.6875 C-1 9 -1 9 -3 10 C-3 8.35 -3 6.7 -3 5 C-2.34 5 -1.68 5 -1 5 C-0.67 3.35 -0.34 1.7 0 0 Z " fill="#3A3A3A" transform="translate(187,211)"/>
<path d="M0 0 C0.33 1.32 0.66 2.64 1 4 C0.01 4.66 -0.98 5.32 -2 6 C-3.19232613 8.05003955 -3.19232613 8.05003955 -4 10 C-4.66 10 -5.32 10 -6 10 C-4.6302836 6.00499382 -2.74277578 3.19990508 0 0 Z " fill="#383838" transform="translate(278,375)"/>
<path d="M0 0 C0.99 0.33 1.98 0.66 3 1 C3.33 4.3 3.66 7.6 4 11 C2 10 2 10 0.875 7.1875 C0 4 0 4 0 0 Z " fill="#5D5D5D" transform="translate(300,190)"/>
<path d="M0 0 C1.31602523 0.61754259 2.62773556 1.24428742 3.9375 1.875 C4.66839844 2.22304687 5.39929688 2.57109375 6.15234375 2.9296875 C8 4 8 4 9 6 C5.65626525 5.44271087 2.96687001 4.64826111 0 3 C0 2.01 0 1.02 0 0 Z " fill="#393939" transform="translate(257,178)"/>
<path d="M0 0 C0.33 0 0.66 0 1 0 C1 2.64 1 5.28 1 8 C-0.32 7.67 -1.64 7.34 -3 7 C-3 6.34 -3 5.68 -3 5 C-2.34 5 -1.68 5 -1 5 C-0.67 3.35 -0.34 1.7 0 0 Z " fill="#7F7F7F" transform="translate(239,366)"/>
<path d="M0 0 C0.99 0.33 1.98 0.66 3 1 C3.33 3.64 3.66 6.28 4 9 C1.47740939 7.02579865 1.0070192 6.03254358 0.3125 2.8125 C0.209375 1.884375 0.10625 0.95625 0 0 Z " fill="#434343" transform="translate(284,194)"/>
<path d="M0 0 C0.66 0.33 1.32 0.66 2 1 C1.38245741 2.31602523 0.75571258 3.62773556 0.125 4.9375 C-0.22304687 5.66839844 -0.57109375 6.39929688 -0.9296875 7.15234375 C-2 9 -2 9 -4 10 C-4 8.68 -4 7.36 -4 6 C-3.34 6 -2.68 6 -2 6 C-1.34 4.02 -0.68 2.04 0 0 Z " fill="#484848" transform="translate(235,97)"/>
</svg>
